<svg width="25" height="24" fill="none" xmlns="http://www.w3.org/2000/svg"><path fill="#E5E5E5" d="M0 0h25v24H0z"/><g id="Museum_1280" clip-path="url('#clip0_0_1')"><path transform="translate(-55 -5085)" fill="#fff" d="M0 0h1280v5360H0z"/><g id="Component 2" clip-path="url('#clip1_0_1')"><path transform="translate(-55 -182)" fill="#fff" d="M0 0h1280v457H0z"/><path id="Rectangle" fill="#fff" d="M-54.002-181h1278v457h-1278z"/><g id="Group 18"><g id="facebook-letter-logo" clip-path="url('#clip2_0_1')"><g id="Group"><path id="Facebook" d="M9.72 4.649v3.304H7.303v4.04H9.72v12.008h4.965V11.994h3.332s.312-1.937.463-4.056h-3.776V5.176c0-.413.541-.969 1.076-.969h2.705V.001h-3.678c-5.21 0-5.087 4.044-5.087 4.648Z" fill="#000"/></g></g></g></g></g><defs><clipPath id="clip0_0_1"><path fill="#fff" transform="translate(-55 -5085)" d="M0 0h1280v5360H0z"/></clipPath><clipPath id="clip1_0_1"><path fill="#fff" transform="translate(-55 -182)" d="M0 0h1280v457H0z"/></clipPath><clipPath id="clip2_0_1"><path fill="#fff" transform="translate(.913)" d="M0 0h23.963v24H0z"/></clipPath></defs></svg>