<svg width="24" height="24" fill="none" xmlns="http://www.w3.org/2000/svg"><path fill="#E5E5E5" d="M0 0h24v24H0z"/><g id="Museum_1280" clip-path="url('#clip0_0_1')"><path transform="translate(-102 -5085)" fill="#fff" d="M0 0h1280v5360H0z"/><g id="Component 2" clip-path="url('#clip1_0_1')"><path transform="translate(-102 -182)" fill="#fff" d="M0 0h1280v457H0z"/><path id="Rectangle" fill="#fff" d="M-101.001-181h1278v457h-1278z"/><g id="Group 18"><g id="instagram (3)" clip-path="url('#clip2_0_1')" fill="#000"><path id="Vector" d="M17.503 0H6.497A6.504 6.504 0 0 0 0 6.497v11.007A6.504 6.504 0 0 0 6.497 24h11.007A6.504 6.504 0 0 0 24 17.504V6.497A6.504 6.504 0 0 0 17.503 0ZM12 18.562A6.57 6.57 0 0 1 5.438 12 6.57 6.57 0 0 1 12 5.438 6.57 6.57 0 0 1 18.562 12 6.57 6.57 0 0 1 12 18.562Zm6.72-11.577c-1.07 0-1.94-.87-1.94-1.939 0-1.07.87-1.94 1.94-1.94 1.069 0 1.939.87 1.939 1.94 0 1.07-.87 1.94-1.94 1.94Z"/><path id="Vector_2" d="M12 6.845A5.161 5.161 0 0 0 6.845 12 5.161 5.161 0 0 0 12 17.155 5.161 5.161 0 0 0 17.155 12 5.161 5.161 0 0 0 12 6.845Z"/><path id="Vector_3" d="M18.72 4.514a.533.533 0 1 0 0 1.066.533.533 0 0 0 0-1.066Z"/></g></g></g></g><defs><clipPath id="clip0_0_1"><path fill="#fff" transform="translate(-102 -5085)" d="M0 0h1280v5360H0z"/></clipPath><clipPath id="clip1_0_1"><path fill="#fff" transform="translate(-102 -182)" d="M0 0h1280v457H0z"/></clipPath><clipPath id="clip2_0_1"><path fill="#fff" d="M0 0h24v24H0z"/></clipPath></defs></svg>